<?xml version="1.0" encoding="utf-8"?>
<!-- Generator: Adobe Illustrator 21.0.0, SVG Export Plug-In . SVG Version: 6.00 Build 0)  -->
<svg version="1.1" id="Layer_1" xmlns="http://www.w3.org/2000/svg" xmlns:xlink="http://www.w3.org/1999/xlink" x="0px" y="0px"
	 width="757.5px" height="846.4px" viewBox="0 0 757.5 846.4" style="enable-background:new 0 0 757.5 846.4;" xml:space="preserve"
	>
<style type="text/css">
	.st0{fill:#FFFFFF;}
	.st1{fill:#ED3D25;}
	.st2{fill:#ECE72D;}
</style>
<path class="st0" d="M749.9,433.1v-1c4.8-7.2,5.3-16.5,1-25.3l0,0c-0.5-1.1-1.1-2.1-1.6-3.2l-0.2-9l-3.6,2.2
	c-0.1-0.1-0.1-0.2-0.2-0.3l-0.7-14.6c0-0.2,0-0.3,0-0.5c0-0.9-0.1-2.5-0.4-4.5c-2.9-16.3-6.4-31.1-10.7-45.1
	c-5.8-19.2-13.1-38-21.7-56c-15.4-32-35.5-62.1-59.9-89.5c-2.3-2.5-4.6-4.4-6.9-5.7c-0.1-21.6-14.1-40.9-36-47.3
	c-6.6-1.9-13.3-3-20.4-3.1l-0.3-0.3c-0.3-0.3-0.6-0.5-0.9-0.7c-0.9-0.7-1.9-1.6-3.4-2.6c-21.5-14.6-42.6-26.1-64.4-35.2
	c1.2-15.1,3.6-30,7.4-44.4c1.4-5.3,3.6-14.1-1.9-23.2c-5.5-9-14.2-11-20-12.3c-13.8-3.1-26.8-5.5-39.6-7.2
	c-15.9-2.2-31.7-3.6-47-4.1c-32.6-1.1-65.5,2.2-97.8,10c-16,3.8-30.6,8.2-44.7,13.3c-22.5,8.2-44.4,18.2-64.9,29.8
	c-17.3,9.7-30.9,18.6-43,27.9c-7.4,5.7-9.3,12.5-9.7,17.2c-0.3,3.9,0.2,11.4,7,18.4c2.6,2.7,5.1,5.6,7.5,8.5
	c-23.5,15.9-45.2,34.4-64.6,55.2c-6.2,6.6-11.7,12.9-16.9,19.4l-36.1,45.2l2.3-0.4c-1.2,1.2-2.3,2.4-3.4,3.8
	c-2.5,3.2-4.4,6.4-6.1,9.1c-1.1,1.8-2.1,3.4-2.9,4.5c-5.7,7.4-8.3,15.2-10.1,21.9c-1.4,5.1-2.1,10.2-2.3,15.1h-1.1l-4.8,14.5
	C-8.9,421.7-1.8,526.2,48,624.1c27.2,53.4,66.3,98.7,116.5,134.7c-4.2,6.4-6.6,13.9-6.8,21.9c-0.2,10.9,3.8,21.2,11.4,29
	s17.9,12.2,29,12.3c0.1,0,0.2,0,0.3,0c18.7,0,34.1-12.2,38.9-29.3c8.6,4,17.5,7.7,26.9,10.8c10.1,3.4,20.6,6.3,31.4,8.7
	c10.6,2.3,21.2,4.2,31.4,5.4c10.3,1.3,21.1,2.1,31.9,2.6c2.5,14.7,15.3,26.1,30.6,26.2c0.1,0,0.2,0,0.2,0c4.8,0,9.4-1.1,13.5-3
	c2.1,0.5,4.2,0.7,6.5,0.8c0.1,0,0.3,0,0.4,0c8.2,0,15.9-3.2,21.8-9c5.6-5.5,8.9-13,9.3-20.8c5.3-1.2,10.3-2.5,14.9-3.6
	c13.2-3.4,26.2-7.4,38.7-12.1c5.6,8.5,15.3,14.2,26.2,14.2c0,0,0,0,0.1,0c8.4,0,16.3-3.2,22.2-9.2c5.9-5.9,9.2-13.8,9.2-22.2
	c0-3.5-0.6-7.1-1.8-10.4c2.2-1.5,4.4-3,6.5-4.6c4.8-3.7,8.5-8.1,10.9-12.9c0.2,0,0.4,0,0.7,0c5.9,0,11.9-1.6,17.3-4.8
	c13.9-8.3,19.8-25.4,14.1-40.7c-2-5.4-5.1-9.2-6.9-11.4c-0.3-0.3-0.5-0.6-0.8-1c-0.7-0.9-1.4-1.9-2.2-2.8c8.8,5.5,18.9,7,29.1,4.3
	c3-0.8,5.8-1.7,8.3-2.8c8,4.4,16.1,6.3,22.5,7.4c6.8,1.2,15.7,2.2,25.3-0.2c17.7-4.4,30.3-17.2,35.7-36.1
	c4.2-14.8,1.5-27.4-7.3-36.4C736,569.7,751.5,503.8,749.9,433.1z"/>
<path class="st0" d="M378.8,824.4c-51.1,0-100.7-10-147.4-29.8c-45.1-19.1-85.6-46.4-120.4-81.2S48.9,638.1,29.8,593
	C10,546.3,0,496.7,0,445.6s10-100.7,29.8-147.4c19.1-45.1,46.4-85.6,81.1-120.4c34.8-34.8,75.3-62.1,120.4-81.2
	c46.7-19.8,96.3-29.8,147.4-29.8s100.7,10,147.4,29.8c45.1,19.1,85.6,46.4,120.4,81.2c34.8,34.8,62.1,75.3,81.2,120.4
	c19.8,46.7,29.8,96.3,29.8,147.4s-10,100.7-29.8,147.4c-19.1,45.1-46.4,85.6-81.2,120.4c-34.8,34.8-75.2,62.2-120.3,81.2
	C479.5,814.4,429.9,824.4,378.8,824.4z"/>
<g>
	<path class="st1" d="M543.8,575.5c8.8-19.3,11.2-39.9,13.8-61.3c-11.3,6.5-21.7,13.1-35.1,14.8c3.7-3.8,7-6.9,9.8-10.4
		c9.6-12.1,15.4-25.6,16.3-41.1c0.5-8.7,1.1-17.3,0.5-26c0-0.6,0.1-1.2,0.1-2.2c1.9,1,3.6,1.8,5.2,2.8c1.8,1.2,2.7,1.1,2.7-1.4
		c0.3-9.7,1.3-19.3,1.2-29c0-3.7,0-3.7,3.7-2.7c-1.9-11.2-3.4-22.2-10.3-31.6c-0.5-0.7-1-1.9-2-1.6c-1.1,0.4-0.5,1.6-0.5,2.4
		c0,14.9-0.5,29.8-2.1,44.6c-0.1,0.5-0.1,1.1-0.2,1.6c-0.6,3.3-0.6,3.4-3.7,2.1c-1.8-0.7-2.2-0.3-2.1,1.5c0.5,14-0.4,27.9-2.8,41.7
		c-0.3,1.8-0.8,3.6-1.1,5.4c-0.3,1.8-0.9,1.6-2.1,0.7c-2.6-1.9-2.6-1.8-3.3,1.4c-2.4,11.2-6.2,22-10.2,33.2c-1.4-2.5-2-4.9-2.6-7.3
		c-0.2-0.8-0.1-1.8-1.1-2c-0.9-0.2-1.4,0.6-2,1.3c-6.3,7.3-12.4,14.7-19.2,21.6c-17.3,17.4-36.5,32.2-59.4,41.8
		c-17.4,7.3-35.4,10.7-54.4,9.7c-11-0.6-21.8-2-32.4-4.7c-6-1.6-11.7-3.9-17.4-6.4c-3.3-2-7.3-3.4-9.9-6c-6.1-6.2-13.4-6.2-21.3-6.3
		c-8.7,0-17.4-0.8-25.9-3.2c-1-0.3-2.1-0.4-2.3-1.6c-0.2-1.1,0.8-1.5,1.5-2.1c5.4-4.7,10.7-9.6,15.5-14.8c5-5.5,9.9-11.1,13.2-17.8
		c2-4.1,1.9-4.4-2.5-4.3c-12.6,0.3-25.2-0.7-37.6-2.3c-9.7-1.3-19.3-3.5-28.6-6.6c-5.7-1.9-11.2-4.2-16.4-7.3c-1.6-1-2-1.6-0.4-3.1
		c2.3-2.1,4.6-4.1,6.5-6.6c0.2-0.1,0.5-0.2,0.7-0.4c11.6-10.7,24.3-19.6,38.7-26c1.9-0.9,2.3-2.3,1.7-4.2c-0.8-2.8-1.2-5.7-2.1-8.5
		c-1.2-3.9-1.2-8.4-4.6-11.5c-1.6-1.4-2.3-3.2-2.6-5.2c-0.7-4.8-0.1-9.7,0.1-14.5c0.1-1.1,0.3-2.3-1.4-2.3c-2.4,0-3.2-1.6-3.7-3.7
		c-1.2-5.8-0.6-11.6-0.8-17.5c-0.1-2-0.1-3.5-2.4-4.2c-1.4-0.4-1.9-1.8-2.1-3.2c0.2-1.9,0.5-3.8,1-5.6c0.8-3-0.2-4.9-3-5.2
		c-2-0.2-2.4-1.2-2.7-2.8c-0.9-4.5-0.6-9.1-0.7-13.7c0-1.8-0.6-3.3-1.7-4.8c-2.2-3.1-4.5-6.2-5.9-9.7c-0.4-1.1-1.9-2.3-0.8-3.4
		c0.5-0.5,2.1,0.3,3.2,0.8c1.5,0.7,2.4,0.4,2.4-1.5c0-2,0.2-4,0.5-6c0.7-6.6,3.1-12.9,5.2-19.1c0.7-2,0.4-2.8-1.6-3.4
		c-1.9-0.5-3.8-1.3-5.6-2c-1.4-0.6-2.5-0.3-3.2,1.1c-1.1,2.1-2.7,3.8-4.4,5.5c-6.8,6.7-15.1,10.8-23.9,14c-2,0.7-3.2,1.5-3.3,3.9
		c-0.2,3.3-0.6,6.5-1.2,9.7c-1.9,10.4-5.4,20-11.8,28.5c-1.2,1.6-3.4,3.2-3.3,4.7c0.1,1.7,2.2,3.3,3.6,4.9c2,2.3,2.5,4.8,1.4,7.6
		c-1,2.6-2.8,4.6-4.9,6.4c-3.8,3.2-8.1,5.8-11.5,9.5c-7.1,5.1-13.9,10.6-21.2,15.4c-2.2,1.4-4.4,2.9-6.9,3.9
		c-5.3,2.1-9.9,0.8-14-2.6c-1.7-1.4-2.6-1.2-4,0.1c-2.1,1.9-4.5,3.3-7.1,4.5c-6,3-11.7,1.1-17.4-1.1c-10.6-4.2-20.5-9.7-29.7-16.5
		c-4.8-3.6-6.5-9.2-4.1-14.8c3.5-8.1,4-16.4,3.4-24.9c-0.4-5.4-2.8-10.3-4.9-15.3c-5.5-12.9-10-26.2-12.4-40
		c-1.7-9.8-2.9-19.7-0.2-29.5c1.4-5.1,3.1-10,6.4-14.3c3.3-4.3,5.5-9.2,8.8-13.4c2.5-3.2,5.7-4.9,9.6-4.8c2.5,0.1,3-1,3.6-3
		c3.4-11,9-20.6,18.4-27.7c9.5-7.3,20.1-9.3,31.7-6.8c0.3,0.1,0.6,0.1,0.8,0.1c3.2,1,5.5,0.9,8.7-1.6c9.1-7.4,19.6-7.6,30.1-2.8
		c10.6,4.8,18.4,13.2,25.6,22c6.1,7.4,10.7,15.5,12.7,25c1.2,5.6,2.5,11.3,0.7,17c-2.4,8-7.7,13.9-14.4,18.7
		c-8.7,6.2-18.5,8.7-29,9.2c-1.7,0.1-2.6,0.7-3.4,2.1c-6.6,11.2-16,18.9-28.6,21.9c-4.4,1.1-6.9,3.2-9.3,6.7
		c-5.4,7.9-13.1,12.2-22.7,12.6c-9.2,0.4-15.2-5-20-12.1c-0.8-1.2-1.6-2.4-2.4-3.6c-0.5-0.6-0.9-1.6-1.9-1.2
		c-0.8,0.4-0.7,1.4-0.7,2.2c0.1,1.8,0.5,3.6,1.1,5.3c2.6,7.1,5.2,14.2,7.6,21.3c4,11.7,3.4,23.3-0.4,34.9c-0.7,2.1-2.4,3.5-3.7,5.6
		c9,1,16.6,4.6,23.7,9.6c1.9,1.4,3.6,1.2,5.5-0.7c5.6-5.4,11.6-10.4,17-16.2c1.7-1.9,3.3-1.6,5.1,0.2c3.1,3.1,6.4,5.9,9.7,8.8
		c1.8,1.6,3.7,1.8,5.7,0.3c5.5-4,11-8.1,16.6-12c1.7-1.2,1.8-2,0.2-3.5c-2.8-2.6-5.4-5.5-8.1-8.2c-1.4-1.4-1.3-2.3,0.5-3.3
		c11.5-6.7,17.2-17.2,20-29.8c2-8.9,2.5-17.9,1.6-26.9c-0.3-2.9-0.1-3,2.7-2.5c8.1,1.5,16.1,1.9,24.1-0.2c4.1-1.1,7.8-3,10.9-5.9
		c1.5-1.4,1.5-2.4-0.2-3.7c-3.5-2.7-6.8-5.8-10-8.8c-1.1-1.1-1.1-1.5-0.1-2.8c9.9-12,12.2-25.5,7.5-40.2c-3-9.3-7.7-17.6-14.2-24.9
		c0.4-1.1,1.4-1.7,2.2-2.3c6.4-4.8,12.8-9.6,19.3-14.3c3.7-2.7,7.1-5.7,11.3-7.8c6.1,12.2,12.1,24.4,18.2,36.5
		c0.2,0.5,0.5,0.9,1,1.9c0-3.6-1.4-6.2-2.3-8.8c-11.8-33.9-25.6-66.9-43.9-97.8c-8.2-13.8-17-27.1-28.2-38.7
		c-1.3-1.3-0.9-1.8,0.3-2.8c12.8-9.8,26.4-18.3,40.4-26.2c19.7-11.1,40.3-20.5,61.6-28.2c13.8-5,27.9-9.1,42.3-12.5
		c30.3-7.2,60.9-10.5,92-9.4c14.9,0.5,29.8,1.9,44.7,3.9c12.7,1.8,25.3,4.1,37.8,6.9c7.1,1.6,7.2,1.6,5.4,8.5
		c-7.1,27.6-9.8,55.6-8.6,84c0.7,16.2,2.3,32.4,5.8,48.3c0.4,1.9-0.5,2.7-1.7,3.6c-9.3,7.3-18.9,14.2-28.4,21.1
		c-29,20.9-58.3,41.5-87.7,61.9c-21.7,15.1-43.6,29.9-67,42.4c-10.7,5.7-21.7,10.6-33.5,13.4c-7.6,1.8-15.3,2.4-23.1,2.1
		c-2.9-0.1-4.3,0.6-5.4,3.4c-3.1,7.5-5.9,15-7.5,23c-0.4,1.8-0.1,2.6,1.9,2.2c1.9-0.3,2.4,0.8,2.3,2.5c-0.5,6.1-0.9,12.2-1.6,18.3
		c-0.2,2,0,2.8,2.2,2.9c4.1,0,5,1,4.7,5.1s-0.8,8.2-1.2,12.3c-0.1,1.2-0.2,2.1,1.6,2.5c2,0.5,2.4,2.4,2.3,4.4
		c-0.2,4.6-0.2,9.1-0.4,13.7c-0.1,1.8,0.4,2.9,2.2,3.6c2.6,1,3.9,3.2,3.9,6c0,5.2,0,10.4,0,15.6c0,1.1-0.2,2.4,0.8,3
		c5.3,3.4,5.2,9,6.2,14.2c0.6,2.9,1,5.9,2.2,8.7c0.5,1.2,1,1.9,2.6,1.1c4.2-2,4.3-1.9,2.7-6.4c-5.8-16.6-8.5-33.7-7.5-51.3
		c0.4-7.4,2-14.6,6-21.1c5.7-9.3,12.1-10.6,21.9-6.4c3.4,1.5,6.2,3.8,8.9,6.3c17.3,16.1,28.4,35.7,33.5,58.7
		c0.2,0.9,0.8,1.8,0.7,2.6c-0.3,5.4,2.7,7.7,7.6,9.1c4.7,1.4,9.1,3.5,13.7,5.4c1,0.4,1.8,0.9,2.1-0.8c1.4-7.2,5.7-12.3,11.6-16.2
		c1.4-1,1.6-1.7,1-3.3c-7.9-20.6-11-41.8-9.5-63.8c1-15.1,3.9-29.8,9.1-44c2.9-8.1,8.6-10.7,17.5-8.1c11,3.3,19.4,10.1,26.1,19.1
		c8.3,11.1,12.6,24.1,17.6,36.8c5.2,13.1,9.4,26.6,12.9,40.2c2.1,7.9,3.8,15.9,5.3,24c0.4,2.3-0.3,2.7-2.3,2.2
		c-7.3-1.7-14.6-3.1-22-3.9c-15.5-1.7-30.8-1.4-44.7,7.4c-3.7,2.3-6.7,5.3-9.1,8.9c-3.5,5.2-3.7,10.6-0.9,16.3
		c5.1,10.5,13.6,16.7,24.5,19.6c12.9,3.4,25.7,3.4,38.5-0.8c5.7-1.8,8.7-0.5,8.6,6.5c0,5.7,0,11.5-1,17.2c-0.4,2.3-0.3,5.3-3.5,5.7
		c-3.1,0.3-3.9-2.5-4.8-4.7c-1.3-3.2-1.7-6.5-2-9.9c-0.1-1.4-0.6-1.9-2-1.8c-7.8,0.3-15.5,0.6-23.3,0.8c-1.4,0-2.3,0.6-3.2,1.7
		c-17.7,20.8-39,36.7-64,47.6c-0.1,0-0.2,0.1-0.2,0.1c-5.3,2.2-5.4,2.2-1.2,6.4c5.3,5.3,12,8.3,19.1,10c26.4,6.4,51.6,2.8,75.8-9.3
		c20.3-10.1,37-24.7,51.8-41.4c8.6-9.7,16.3-20.2,23-31.4c0.7-1.2,1.1-1.8,2.6-1c4,2.2,6.2,1,6.3-3.7c0.2-7.2,0.2-14.4,0.3-21.6
		c0-0.9,0-1.8,0-2.7c0-5,0.1-5.1,4.5-3.7c2.3,0.7,2.6,0.1,2.6-2c0-11.9-1.2-23.7-2.6-35.5c-0.3-2.5-0.6-5-0.9-8.1
		c2.5,1.3,4.7,2.4,6.8,3.6c1.7,0.9,2.6,0.6,2.5-1.6c-0.4-11-1.4-21.8-3.7-32.6c-0.9-4.4-1.8-8.7-3-13c-0.7-2.3,0.2-2.5,2-2.4
		c1.2,0.1,2.4,0,4,0c-1.9-2.6-3.6-4.8-5.2-7c-6-8.6-11.1-17.9-16.5-26.9c-0.9-1.4-0.4-2.1,0.9-2.6c2-0.9,3.9-1.8,6-2.8
		c-2.8-3.3-5.7-6.4-8.2-9.7c-5.1-6.7-9-13.9-10.1-22.4c0-0.1,0-0.2-0.1-0.3c-0.8-4.9-0.5-5.2,4.3-4.6c0.5,0.1,1.1,0.2,1.8,0.4
		c-6.9-9.8-9.3-21.1-11.8-32.4c-0.4-1.7-1.1-2.1-2.7-2.2c-18-0.7-36-0.2-53.9,1.4c-15.8,1.4-31.5,3.4-46.9,7.3
		c-0.5,0.1-1,0.4-1.7-0.2c8.7-6.1,17.3-12.2,25.9-18.2c15.9-11.1,31.8-22.4,47.9-33.3c18.7-12.7,37.1-25.8,56.5-37.4
		c13.5-8.1,27.7-14.9,43.1-18.8c11.8-3,23.7-4,35.6-0.5c14.7,4.3,23,18.5,19.4,33.4c-2.1,8.8-7.1,15.9-13,22.4
		c-4.1,4.5-8.5,8.7-12.7,13.1c-2.1,1.8-4.3,3.6-6.3,5.5c-12,11.7-24.9,22.4-37.6,33.2c-1.6,1.4-3.2,1.6-5,0.9
		c-10.2-3.5-20.6-5.7-31.3-7.1c-4.3-0.6-4.6-0.4-4,3.9c0,0.2,0.1,0.4,0.1,0.5c1.6,10.8,6.3,20.3,12.5,29.1c3.5,5,7.4,9.9,11.7,14.3
		c0.5,0.5,1.2,1.1,0.9,1.8c-0.3,0.7-1.2,0.3-1.7,0.3c-2.5-0.1-5.1,0.1-7.6-0.4c-0.8-0.2-2.4-0.6-2,1.1c0.6,2.3,1,4.8,2.6,6.8
		c2.5,7.2,6.5,13.5,10.6,19.8c1.9,2.9,3.9,5.7,6.2,9c-2.3,0-4,0-5.7,0c-3.4,0.1-3.5,0.3-1.8,3.2c4.3,7.7,7.9,15.7,10.5,24.1
		c1,3.1,2,6.2,2.9,9.3c0.7,2.6,3,2.1,4.5,1.8c1.7-0.3,0.5-2,0.2-2.9c-0.8-2.3-1.7-4.6-2.7-6.8c-3.7-7.8-7.9-15.3-12.4-22.7
		c-1.8-2.9-1.7-2.9,1.6-3c2.1,0,4.2-0.1,6.3,0c1.8,0.1,2.1-0.6,1.1-2c-0.3-0.4-0.5-0.9-0.8-1.4c-4.9-9.4-10.3-18.6-14.5-28.4
		c3.5-1.4,7.2-0.9,10.7-1.2c15.5-1.4,30.8-0.1,46,2.7c7.9,1.4,15.7,3.6,23.5,6c13.1,4.1,25.6,9.5,37.6,16.1
		c5.9,3.3,11.6,6.9,17.4,10.3c18.1,12.5,33.6,27.7,46.7,45.4c5.5,7.5,10.5,15.3,14.6,23.6c1.2,2.4,1.1,3.6-1.5,5
		c-15.5,8.7-30.6,18.1-45.4,28.1c-1.7,1.1-3.4,2-5,3.2c-22.8,15.8-44.7,32.7-65.6,51c-23.8,20.9-46.2,43.2-66.4,67.7
		C546.2,573,545.6,574.8,543.8,575.5z M460.2,186.4c-0.9,0-1.8,0-2.7,0c-14.1,0-28.3,0-42.4,0.9c-14.6,0.9-29.1,2.2-43.4,4.7
		c-10.9,1.9-21.5,4.8-32.1,8.4c-15.3,5.2-30.4,10.7-44.9,17.8c-10.8,5.2-21.3,10.7-30.6,18.5c-1.4,1.2-2.1,2.4-1.7,4.2
		c0.6,2.4,1.3,4.7,1.7,7.2c0.3,1.7,1.2,2.2,2.8,1.9c2.6-0.5,5.2-0.9,7.8-1.4c6.9-1.3,13.7-2.6,20.6-4c7.5-1.5,15-2.9,22.4-4.7
		c8.1-1.9,16.1-4.3,24.2-6.2c9.6-2.3,19.1-5.1,28.5-8.1c13.2-4.1,26.3-8.7,39.2-13.8C427.1,204.7,444.1,196.7,460.2,186.4z
		 M239.1,493.5c0.9,0.4,1.3,0.7,1.8,0.8c13.4,3.7,27,6.8,40.9,8.2c14.6,1.5,29.2,1.5,43.7-0.6c13.8-2,26.8-6.6,39.9-11.1
		c3.6-1.2,7.1-3.5,6.9-8.1c-0.2-6.5-2.4-12.3-6.7-17.2c-1.3-1.5-3-2.8-5.1-2.8c-18.4-0.6-36.7,0.1-54.8,3.4
		c-13.7,2.5-27.1,6.2-39.9,11.8C256.5,482.1,247.5,486.9,239.1,493.5z M109.5,264.4c0.3,3.8,0.7,7.6,2.3,11.2
		c3.8,8.5,9.1,16.4,12,25.3c0.3,0.9,0.9,1.8,1.5,2.6c5.5,7.6,12.1,9.7,19.3,1.7c4.5-5,7-11,8.6-17.4c0.9-3.8,0.5-7.6-1.3-11.2
		c-0.8-1.7-1.6-3.5-2.4-5.2c-2.9-6.2-5.8-12.3-8.8-18.4c-1.2-2.5-2.9-4.5-5.9-4.6c-2.9-0.1-5.9-0.3-8.7,0
		C114.3,249.9,109.4,254.5,109.5,264.4z M166,231.4c-1.6,0-3.3-0.1-4.9,0c-3.8,0.3-6.7,2.8-6.7,6.3c0.1,9.1,1.2,18.2,6.3,25.9
		c5.1,7.8,10.8,15.2,16.4,22.7c2.5,3.4,6,3.5,9.2,0.7c1.3-1.1,2.4-2.5,3.7-3.6c5.7-4.9,6.5-11.1,4.9-17.9
		c-2.6-10.8-9.1-19.4-15.5-28.2C176,232.6,171.8,230.5,166,231.4z M292.7,552.3c4,0.5,7.3,1.3,10.8,1.3c16.4,0.1,31.9-4.4,46.8-10.5
		c18.7-7.7,33.9-20.5,47.4-35.4c1.3-1.4,3.6-3.1,1.8-5c-1.7-1.8-3.7,0-5.3,1.3c-6.3,4.9-12.3,10.2-18.9,14.8
		c-16.6,11.6-34.3,20.6-54.8,22.6c-2.1,0.2-4.2,0.4-7,0c6.4-4.5,12.3-8.8,17.7-13.6c5.5-4.8,10.9-9.8,15.1-16.1
		c-0.6-0.1-0.8-0.2-1-0.1c-6.7,1.1-13.3,2.2-20,3.1c-2.9,0.4-4.6,1.7-6.1,4.1C311.6,530.6,304.1,542.6,292.7,552.3z M408.4,341.8
		c-3.5-4.6-7-8.6-11.4-11.6c-3.2-2.2-5.1-1.4-6.3,2.4c-2,5.9-3.4,11.8-4.6,17.9c-3,15.4-3.5,30.8-1.4,46.2
		c1.5,11.1,4.5,21.9,9.2,32.1c0.6,1.3,1.2,2.7,2.7,2.8c2.9,0.2,5.9-3.8,5.2-6.7c-0.2-0.8-0.5-1.6-0.7-2.3c-3.8-11-6.3-22.2-7.1-33.8
		c-0.7-9.9-0.2-19.6,1.1-29.4C396.1,351,398.9,344.1,408.4,341.8z M111.1,315.8c0-1.7,0-3.5,0-5.2c0.1-15.9-9.8-25.8-21.2-34.7
		c-2.7-2.1-5.4-1.3-7.8,1.2c-1.7,1.9-2.5,4.2-3.4,6.5c-2.7,7.3-3.9,14.7-3.3,22.5c0.1,1.7,0.3,3.8,2.5,4.1c2.4,0.4,2.7-2,3.1-3.5
		c0.7-2.5,1.5-5.1,2.6-7.5c1.2-2.7,3.8-4.3,6.3-3.8c2.6,0.5,3.2,2.5,3.8,4.7c1.3,4.9,0.7,9.8,0.9,14.7c0.3,7,3.4,12.4,9.7,15.6
		c3,1.6,4.6,0.7,5.9-2.5C111.6,324,111.1,319.8,111.1,315.8z M284.3,411.3c-0.2,5.1,0.8,11.2,2.2,17.1c1.6,7.1,3.6,14.1,5.9,20.9
		c1.4,4.2,3.3,5.1,7.5,4.5c3-0.5,3.9-1.8,2.4-4.5c-4.9-8.7-7.1-18.1-7.8-27.8c-0.8-10.2,0.2-20,7.8-27.9c1.2-1.2,1-2.4,0.1-3.7
		c-2.2-3-4.7-5.8-7.5-8.2c-2.4-2.1-3.8-1.8-4.9,1.1C286.5,391.5,284.2,400.7,284.3,411.3z M423.3,411.1V411c1.1,0,2.2,0,3.3,0
		c2.1,0,2.7-1.1,1.8-2.8c-2.4-4.5-5.2-8.7-8.3-12.8c-1.1-1.5-2.5-1.1-3,0.6c-1,3.4-1.5,6.9-1.1,10.5c0.3,3,1.8,4.5,4.7,4.6
		C421.4,411.2,422.4,411.1,423.3,411.1z M312.3,430.7h0.1c0,1.4,0,2.7,0,4.1c0,3.6,1.1,4.7,4.7,4.7c1.1,0,2.2-0.2,3.2-0.6
		c2.1-0.7,2.9-2.5,2.2-4.6c-0.3-0.7-0.6-1.3-0.9-2c-1.7-3.3-3.1-6.7-5.4-9.7c-0.6-0.8-1.4-1.7-2.4-1.4c-1,0.3-0.9,1.5-1,2.4
		C312.5,425.9,312.4,428.3,312.3,430.7z"/>
	<path class="st1" d="M195.5,650.1c0,3.4-0.1,6.8,0.1,10.1c0.1,2-0.6,2.4-2.5,2.4c-12.3-0.1-24.7,0-37,0c-1.5,0-2.5-0.5-3.5-1.6
		c-16.6-18.3-30.9-38.2-42.8-59.9c-12.3-22.5-21.9-46-28.5-70.8c-4.9-18.3-8.1-36.8-9.9-55.6c-1.6-17.1-1.5-34.3-0.8-51.4
		c0-1.1,0.3-2.2,0.5-3.6c4.4,3,8.6,5.9,12.9,8.4c8.9,5.2,18.3,9.2,28.1,12.4c3.5,1.1,6.6,0.6,9.7-1.2c0.9-0.5,1.7-1,2.5-1.6
		c3.6-2.8,7.7-3,11.3-1.1c6,3.2,11,1.3,16.2-1.5c6.9-3.7,13.8-7.3,20.7-10.9c1.3-0.4,2.5-0.6,2.1,1.5c-0.3,1.4-0.4,2.9-0.6,4.3
		c-0.1,0.6-0.4,1.4,0.2,1.8s1.2-0.2,1.7-0.6c5.6-3.8,11.2-7.6,16.9-11.3c12.6-8.2,25.3-16.1,38.9-22.6c3.4-1.6,6.7-3.6,10.7-3.6
		c-0.5,4.3-0.3,8.6-0.4,12.9c0,1.3,0.2,2.8,1.5,3.3c2.6,0.9,2.8,2.7,2.9,5c0.1,2.4,0.2,4.8,0.7,7.1c0.7,3.3-0.1,7.2,2.4,9.6
		c3.4,3.2,3.8,6.7,3.1,10.9c-0.3,1.7,0.1,3.5,0.2,5.2c0.1,1.4,0.7,2.5,1.8,3.2c4.9,3,4,7.9,4.4,12.5c0.1,0.9-0.5,1.2-1.2,1.6
		c-3.7,2.2-7.5,4.4-11.2,6.7c-8.3,5.3-16.7,10.6-24,17.4c-0.5-0.1-1.1-0.2-1.6-0.4c-6.4-3.4-12.7-6.9-19.2-10.2
		c-7.1-3.6-14.1-7.4-21.6-10c-4.8-1.6-10.2-2.4-13-7.3c-0.9,0.5-0.9,1.2-1,1.8c-1.2,6.7-2.6,13.4-3.7,20.1
		c-1.7,10.5-3.2,21-4.7,31.6c-1.4,9.4-2.9,18.7-4,28.1c-1.7,15.3-3.4,30.6-4.7,45.9c-1.6,18.4-2.5,36.8-2.7,55.2
		c-0.1,7.4-0.6,5.9,5.9,6C166.8,650.1,181.2,650.1,195.5,650.1z"/>
	<path class="st2" d="M195.5,650.1c-14.3,0-28.7,0-43-0.1c-6.5-0.1-6,1.4-5.9-6c0.2-18.4,1.1-36.8,2.7-55.2
		c1.3-15.3,3-30.6,4.7-45.9c1.1-9.4,2.6-18.8,4-28.1c1.5-10.5,3.1-21.1,4.7-31.6c1.1-6.7,2.4-13.4,3.7-20.1c0.1-0.6,0.1-1.3,1-1.8
		c2.9,4.9,8.2,5.6,13,7.3c7.6,2.6,14.6,6.4,21.6,10c6.5,3.3,12.8,6.8,19.2,10.2c0.5,0.2,1,0.3,1.6,0.4c0.3,1.6,2,2.1,2.6,3.5
		c-1.8,2.5-4.2,4.5-6.5,6.6c-1.6,1.5-1.2,2.1,0.4,3.1c5.2,3.1,10.7,5.4,16.4,7.3c9.3,3.1,18.9,5.3,28.6,6.6
		c12.5,1.7,25,2.6,37.6,2.3c4.4-0.1,4.5,0.2,2.5,4.3c-3.3,6.7-8.2,12.3-13.2,17.8c-4.8,5.3-10.1,10.1-15.5,14.8
		c-0.7,0.6-1.7,1-1.5,2.1s1.4,1.3,2.3,1.6c8.5,2.4,17.2,3.1,25.9,3.2c7.8,0,15.2,0.1,21.3,6.3c2.6,2.7,6.6,4.1,9.9,6
		c-1.5,1.7-2.7,3.6-4.9,4.5c-1.1-2.1-3-3.2-5.2-3.4c-4.6-0.4-9.3-0.4-13.9,0.2c-9.5,1.3-18.8,1.6-27.8-2.6
		c-14.4-6.9-26.9-15.4-32.9-31.3c-2-5.4-5.7-10.1-11.6-12c-4.6-1.5-8.1-1-9.2,4.5c-1.3,5.9-0.4,11.8-0.1,17.7
		c0.4,8.1,0.4,16.3-1.2,24.2c-1.7,8.8-5.3,17.1-7.9,25.7c-1.5,5.1-3.5,10.2-3.6,15.5c-0.3,8.3,0.3,16.6-1.3,24.8
		c-0.5,2.5-0.6,5.2-2.2,7.5C206.4,650.1,200.9,650.1,195.5,650.1z"/>
	<path class="st1" d="M48.7,320.5c1.4,5.5,2.9,11.1,4.3,16.6c2.8,10.8,5.7,21.6,10.7,31.7c2.2,4.4,0.8,8.7,0,13.1
		c-2.9,15.2-4.6,30.4-5.4,45.9c-0.9,17.9-0.4,35.8,1.4,53.6c1.3,12.5,3.5,24.9,6.2,37.2c5.9,27.2,15.3,53.2,27.8,78
		c8.8,17.6,19.1,34.2,31,49.9c19.1,25.2,41.2,47.4,66.7,66.2c1.4,1.1,2.1,2.1,2.1,4c-0.1,10,0,20.1,0.1,30.1c0,1.5,0,3.1,0,5.4
		C139.2,717,96.7,671.5,67.7,614.3c-48.2-94.9-53.1-193.1-19.9-293.7C48,320.5,48.3,320.5,48.7,320.5z"/>
	<path class="st1" d="M642.8,605.7c3.1-0.6,6.4-1.9,9.4-1.5c4.3,0.7,5.5-1.7,7.1-4.6c12.1-22.3,20.7-46,27.1-70.5
		c4.6-17.8,7.7-35.9,9.2-54.3c0.5-6.6,1-13.3,1.2-19.9c0-1.1,0.2-1.9,1.2-2.6c9.8-6.1,19.6-12.1,30.1-18.7
		c1.5,72.1-15.1,138.8-52.1,200.3c-0.4-3.2-0.3-6.4-0.8-9.6c-0.8-6-1.4-12.1-3.9-17.8c-0.8-1.8-2-3.4-3.6-4.7
		c-3.8-2.9-7.6-1.9-9.6,2.4c-0.4,0.9-0.3,1.5,0.3,2.2c3.2,3.1,3.6,7.1,2.8,11.2c-1.1,5.9-2.5,11.7-4.7,17.3
		c-0.9,2.2-0.6,2.8,1.9,2.7c7-0.4,14.1-0.1,20.8,2.1c10.8,3.5,13.9,9.1,10.8,20c-2.9,10.3-8.9,18.1-19.8,20.8
		c-5.4,1.3-10.9,0.8-16.3-0.2c-8.6-1.5-16.8-4.1-22.9-10.9c-1-1.2-1.7-0.4-2.5,0.1c-4.6,2.7-9.4,5.2-14.6,6.6
		c-4.3,1.1-8.3,0.6-12-1.8c-4.2-2.6-5.7-6.4-5.1-11.5c-2.8,1-4.8,3-7.1,4.2c-2.9,1.5-5.7,3.1-8.8,4.2c-8.8,3.1-15.4-0.4-17.9-9.6
		c-0.5-2-0.9-4.1-1.4-6.3c-4.1,2.9-8.2,5.6-12.9,7.4c-5.2,2-10.5,2.2-15.7,0.2c-5-1.9-7.4-6-6.6-11.4c0.2-1.6,0.6-3.2,0.9-4.8
		c1.7-4.4,3.3-8.8,5.1-13.1c6.3-15,14.7-28.5,27.3-39c8.3-6.9,17.5-12.4,28-14.9c6.8-1.6,16.6,2.6,13.8,12.9
		c-0.9,3.4-2.4,6.7-2.3,10.3c0,0.7-0.1,1.8,0.3,2.1c0.8,0.6,1.4-0.4,2.1-0.8c7-4.6,14.1-9.2,22.3-11.6c2.9-0.8,5.7-1,8.8,0.2
		c5.3,2,6.7,6.1,7.1,11.1C639.5,606.9,639.6,606.9,642.8,605.7z M588.1,598.8c0.1-4.5-2.5-6.2-6.5-4.4c-1.6,0.7-3.1,1.6-4.5,2.6
		c-10.9,7.9-20.7,16.9-28.1,28.2c-3.5,5.3-6.6,10.9-7.9,17.3c-0.8,4.2,1.2,6.3,5.4,5.6c3.3-0.5,6-2.1,8.6-3.9
		c12.1-8.7,21.1-20.1,28.5-32.9C585.8,607.4,587.9,603.5,588.1,598.8z M580.3,650.3c-0.1,3.9,1.3,5,4.6,4.3c2-0.4,3.8-1.3,5.5-2.4
		c9.9-5.9,18.2-13.8,26.5-21.7c3.5-3.3,6.8-6.8,8.9-11.2c2.1-4.3,0.3-7.3-4.5-7.6c-4.5-0.3-8.7,1-12.6,2.9
		c-11.6,5.7-19.7,14.9-25.2,26.6C582,644.3,580.8,647.5,580.3,650.3z M667.2,647.8c-9.2,0.6-17.2,4.7-24.9,9.4
		c-1.6,1-1.3,1.6-0.3,2.6c3.7,3.6,8.1,6.1,13,7.7c9,2.9,17.7,0,22.2-7.3c3-4.8,1.4-9.3-3.9-11.3
		C671.4,648.1,669.4,647.8,667.2,647.8z M646,628.7c0.1-3-0.6-3.7-2.9-3.2c-1.1,0.2-2.1,0.7-3.1,1.1c-10,4.7-17.1,12.7-23.6,21.4
		c-1.7,2.3-3.2,4.6-4.3,7.2c-0.5,1.2-1,2.7,0.1,3.9c1.2,1.2,2.6,1.1,4.1,0.6c1.6-0.5,3.1-1.3,4.3-2.3c8.4-6.5,15.9-13.8,22-22.5
		C644.3,632.8,645.7,630.7,646,628.7z"/>
	<path class="st1" d="M430.9,667.7c-9.7,0.2-17.6,1.1-25.6,1.1c-3.9,0-7.8-0.5-11.7-1.2c-5.5-1-8.8-4.6-10.5-9.7
		c-2.3-6.8-3.9-13.8-5-20.9c-0.9-5.8,0.1-11.6,3-16.7c3.1-5.4,4.1-11.2,5-17.1c0.3-2.1,0.9-4.1,1.6-6c1.7-4.7,4.1-6.3,9.1-6.1
		c6.7,0.3,13.3,0.6,20,0.1c9.1-0.6,17.1-4.1,24.5-9c3.9-2.5,7.6-5.3,11.3-8c4.5-3.3,9.5-6,15.1-6.5c8.6-0.8,16-4.6,23.5-8.5
		c12.9-6.7,25.2-14.5,37.3-22.6c2.2-1.5,4.6-2.7,7.1-3.5c3.8-1.2,6.9,0.8,7.5,4.8c0.5,3.9-0.9,7.1-2.9,10.3
		c-3.1,4.8-7.1,8.8-11.1,12.7c-3.1,3.1-4.3,6.8-4.7,11c-0.7,6.9-0.8,13.9-2.5,20.6c-1.9,7.4-6.7,13.2-11.2,19.2
		c-2.6,3.4-4.8,7.1-6.6,10.9c-0.7,1.5-0.9,3.1-0.9,4.8c0,5.7-1.5,10.9-5.2,15.4c-2.3,2.8-2.5,6.4-2.6,9.9c-0.2,4.7-0.2,9.5-0.4,14.2
		c-0.4,6.4-4.5,10.9-10.8,12.9c-5.9,1.8-11.3,0-16.8-1.7c-8.6-2.8-16.9-6.2-25.5-8.8C437.6,668.1,433.4,667.5,430.9,667.7z"/>
	<path class="st2" d="M642.8,605.7c-3.1,1.2-3.2,1.2-3.5-1.8c-0.3-5-1.8-9.1-7.1-11.1c-3-1.2-5.9-1-8.8-0.2
		c-8.2,2.4-15.3,7-22.3,11.6c-0.6,0.4-1.3,1.5-2.1,0.8c-0.4-0.3-0.2-1.3-0.3-2.1c-0.1-3.6,1.4-6.9,2.3-10.3
		c2.8-10.3-7-14.6-13.8-12.9c-10.6,2.6-19.7,8-28,14.9c-12.6,10.5-21,24-27.3,39c-1.8,4.3-3.4,8.8-5.1,13.1c-2.2-1.2-4.7-0.7-7-0.8
		c-5.1-0.5-10.3,0.2-15.4-0.6c2.1-5,5.1-9.6,7.5-14.4c4.1-8.2,8.9-16,13.2-24c4.9-9.2,10.6-17.9,15.8-26.9c0.9-1.5,1.3-3.3,2.7-4.6
		c1.8-0.8,2.5-2.6,3.6-3.9c20.2-24.5,42.6-46.8,66.4-67.7c20.8-18.3,42.8-35.3,65.6-51c1.6-1.1,3.3-2.1,5-3.2
		c-0.1,6.7,0.1,13.4-0.7,20.2c-0.6,5-0.9,10.1-1.5,15.2c-0.7,6.2-1.7,12.4-2.9,18.5c-0.9,4.3-1.6,8.6-2.5,12.9
		c-1.2,5.3-2.5,10.5-4,15.7s-3,10.3-4.7,15.4c-1.6,4.8-3.6,9.5-5.2,14.2c-2.3,6.6-5.2,12.8-8,19.2c-3.5,7.8-7.6,15.3-11.5,22.8
		C643,604.4,642.7,605,642.8,605.7z"/>
	<path class="st1" d="M365.4,751.8c0-7.1,0-14.2,0-21.4c0-5.5,3.9-10.5,8.9-11.3c6.4-1.1,11.7,1.8,13.7,7.6c0.4,1.2,0.4,2.3,0.4,3.5
		c0,14,0,28,0,41.9c0,4.8,0.7,5.4,5.3,5.2c4.4-0.1,8.7-0.8,13.1-1.2c2.1-0.2,2.9-1.4,2.6-3.3c-0.4-2.7-1-5.4-1.5-8.1
		c-1-6.2,2.8-11.8,8.7-13.1c6.2-1.4,11.9,2.2,13.6,8.4c0.7,2.7,1.3,5.5,1.8,8.3c0.7,3.1,1.7,4,4.7,3.4c5.2-1.1,10.5-2.3,15.7-3.6
		c9.4-2.3,18.6-5,27.7-8.4c1.1-0.4,2.3-0.8,3.2-1.5c1.4-1,1.9-2.3,1.1-4c-1.4-2.9-2.6-5.8-4-8.7c-3.1-6.1-0.9-13.3,4.9-16.2
		c5.8-2.8,12.6-0.4,15.6,5.8c1.5,3,2.8,6.1,4.3,9.1c1.3,2.7,3,3.2,5.5,1.8c3-1.7,6-3.4,8.9-5.2c3.1-1.9,3.4-3.6,1.5-6.8
		c-4.6-7.5-9.2-15-13.8-22.5c-2.3-3.8-4.7-7.6-7-11.4c-3.3-5.6-1.8-13,3.2-16c6.1-3.6,12.8-2,16.5,4.1c9,14.6,18,29.3,26.9,43.9
		c3.9,6.4,2.8,12.2-3.3,16.8c-12.5,9.5-26.5,16.4-40.8,22.6c-16.9,7.4-34.4,13.3-52.3,17.9c-11.6,2.9-23.1,5.8-35,7.2
		c-18.1,2.1-36.2,2.4-54.4,1.7c-10.6-0.4-21.1-1.2-31.6-2.5c-9.9-1.2-19.6-2.9-29.3-5c-9.9-2.2-19.6-4.8-29.1-8
		c-17.2-5.8-33.6-13.4-48.7-23.4c-11.5-7.7-13.4-18.9-5.6-31.6c2.7-4.4,5.6-8.8,10.5-11.1c3.8-1.8,10.4-0.5,13.8,3.1
		c2.2,2.4,2,5.6-0.5,8.7c-1.5,1.8-3.3,3.4-4.9,5.1c-4,4.2-3.7,7.6,1.1,10.8c8.5,5.5,17.8,9.4,27.1,13.2c14.9,6,30.2,10.6,45.8,14.1
		c13.2,3,26.7,5.1,40.2,6.2c3.5,0.3,6.9,0.6,10.4,0.6c3.4,0,5-1.5,5-5C365.4,766.3,365.4,759.1,365.4,751.8z"/>
	<path class="st1" d="M211.9,650c1.6-2.2,1.7-4.9,2.2-7.5c1.5-8.2,1-16.5,1.3-24.8c0.2-5.4,2.1-10.4,3.6-15.5
		c2.6-8.6,6.1-16.9,7.9-25.7c1.6-8,1.5-16.1,1.2-24.2c-0.3-5.9-1.2-11.8,0.1-17.7c1.2-5.5,4.6-6,9.2-4.5c5.8,1.9,9.6,6.6,11.6,12
		c5.9,15.9,18.5,24.5,32.9,31.3c8.9,4.3,18.3,3.9,27.8,2.6c4.6-0.6,9.3-0.6,13.9-0.2c2.2,0.2,4.1,1.3,5.2,3.4
		c0.2,3.2-1.4,5.9-3.4,8.1c-12.1,13.7-13.9,30.1-12.8,47.3c0.4,6.8,1.5,13.4,4.2,19.6c0.7,1.7,1,3.7-0.5,5.1
		c-1.8,1.7-4.2,2.2-6.6,1.5c-5.8-1.7-11.7-2.6-17.8-2.6c-22.3-0.1-42.5,6-60,20.2c-4.8,3.9-8.6,8.8-12.5,13.6
		c-3.4,4.2-6.7,8.4-12.3,9.9c-3.9,1-6.4-0.1-8.1-3.6c-0.6-1.2-1.1-2.5-1.4-3.8c-2.7-12.8-1-24.6,7.8-34.8
		C207.9,656.7,210.5,653.8,211.9,650z"/>
	<path class="st2" d="M528.7,313.4c-1.6-2-2-4.5-2.6-6.8c-0.4-1.7,1.2-1.3,2-1.1c2.5,0.5,5.1,0.3,7.6,0.4c0.6,0,1.4,0.4,1.7-0.3
		c0.4-0.8-0.4-1.3-0.9-1.8c-4.3-4.4-8.1-9.2-11.7-14.3c-6.2-8.8-10.9-18.3-12.5-29.1c0-0.2-0.1-0.4-0.1-0.5c-0.5-4.3-0.3-4.5,4-3.9
		c10.6,1.4,21.1,3.6,31.3,7.1c1.8,0.6,3.4,0.4,5-0.9c12.8-10.8,25.6-21.6,37.6-33.2c2-1.9,4.2-3.7,6.3-5.5c2.2,1.4,3.8,3.5,5.5,5.4
		c9.5,10.8,18.6,21.9,26.6,33.9c6.7,10.1,13.3,20.4,18.9,31.2c4.6,9,9,18.1,12.8,27.5c3.1,7.4,5.6,14.9,8.4,22.4
		c0.5,1.2,0.5,2.6,1.1,3.8c-5.8-3.5-11.5-7.1-17.4-10.3c-12-6.6-24.5-12-37.6-16.1c-7.7-2.4-15.5-4.6-23.5-6
		c-15.2-2.8-30.5-4.1-46-2.7c-3.6,0.3-7.3-0.2-10.7,1.2C532.8,312.5,530.7,313.1,528.7,313.4z"/>
	<path class="st1" d="M722.7,383c-4.8-6.1-9.5-11.6-14.3-17c-7.6-8.4-16.2-15.6-25.5-22.1c-1.3-0.9-2-1.9-2.5-3.4
		c-9.1-27.5-21.3-53.5-37.1-77.8c-8.8-13.6-18.6-26.4-29.2-38.7c-0.9-1-1.5-1.6-0.1-2.8c6.8-6,12.6-12.8,17.8-20.1
		c1.5-2,2.2-1.7,3.7,0c22.7,25.5,41.7,53.6,56.5,84.4c8.2,17.1,15,34.7,20.5,52.8c4.2,14,7.5,28.3,10.1,42.7
		C722.7,381.4,722.7,381.9,722.7,383z"/>
	<path class="st2" d="M242.5,393.8c-3.9,0-7.3,2-10.7,3.6c-13.6,6.4-26.3,14.4-38.9,22.6c-5.7,3.7-11.3,7.5-16.9,11.3
		c-0.5,0.4-1.1,0.9-1.7,0.6c-0.6-0.4-0.3-1.2-0.2-1.8c0.1-1.4,0.3-2.9,0.6-4.3c0.4-2.1-0.7-1.9-2.1-1.5c0.9-4.5,1.7-9,2-13.6
		c3.4-3.6,7.7-6.3,11.5-9.5c2.1-1.8,3.9-3.8,4.9-6.4c1.1-2.8,0.6-5.3-1.4-7.6c-1.4-1.6-3.5-3.2-3.6-4.9c-0.1-1.5,2.2-3.1,3.3-4.7
		c6.4-8.5,9.9-18.1,11.8-28.5c0.6-3.2,1-6.5,1.2-9.7c0.1-2.4,1.3-3.2,3.3-3.9c8.9-3.1,17.1-7.3,23.9-14c1.7-1.7,3.2-3.4,4.4-5.5
		c0.7-1.4,1.8-1.6,3.2-1.1c1.8,0.7,3.7,1.5,5.6,2c2,0.6,2.3,1.4,1.6,3.4c-2.2,6.3-4.5,12.5-5.2,19.1c-0.2,2-0.5,4-0.5,6
		s-0.9,2.2-2.4,1.5c-1.1-0.5-2.7-1.3-3.2-0.8c-1.1,1.1,0.4,2.3,0.8,3.4c1.4,3.6,3.7,6.6,5.9,9.7c1.1,1.5,1.6,3,1.7,4.8
		c0.1,4.6-0.2,9.1,0.7,13.7c0.3,1.5,0.7,2.6,2.7,2.8c2.9,0.3,3.9,2.2,3,5.2c-0.5,1.9-0.8,3.7-1,5.6
		C245,391.4,244.2,393.4,242.5,393.8z"/>
	<path class="st1" d="M319.2,627.4c0-0.6,0.1-1.3,0-1.9c-1.3-11.5,2.6-21.6,8.3-31.3c1.9-3.1,4-6.1,5.8-9.2c3-5.2,5.8-4.1,9.2-1.2
		c4.1,3.5,9,5,14.1,6.1c6.4,1.3,12.9,1.2,19.4,1.1c5.8-0.1,7.8,2.5,6.4,8.2c-1.5,6-4.4,11.5-6.5,17.3c-2.7,7.3-4.6,14.8-3.9,22.7
		c0.4,4.4,2.4,8.3,3.8,12.5c0.6,1.9,1.3,3.8,1.6,5.8c0.6,3.8-1.5,5.9-5.4,5.3c-2.1-0.3-4.1-0.9-5.8-2.1c-5.6-4-11.3-3-17.2-0.9
		c-1.4,0.5-2.9,0.9-4,1.7c-6.7,5.2-12.4,2.7-17.8-1.5c-4.1-3.2-6.6-7.2-7.1-12.7C319.5,640.5,319.3,633.9,319.2,627.4z"/>
	<path class="st1" d="M108.7,213.6c5.2-6.6,10.4-12.4,15.7-18.1c20.5-21.8,43.3-40.9,68.5-57c1.7-1.1,2.6-1,3.8,0.6
		c5.4,7.1,10.1,14.7,14.8,22.2c1.1,1.7,0,2.2-1.1,2.9c-12.7,7.9-24.6,16.8-36,26.5c-4.9,4.1-9.6,8.3-14.2,12.8
		c-1.1,1.1-2.3,1.7-4,1.9c-5.8,0.6-11.9,1.1-16.4,5.2c-2.5,2.3-4.7,2.4-7.6,1.7c-3.9-1-7.8-0.6-11.7-0.6
		C116.8,211.7,113.1,212.8,108.7,213.6z"/>
	<path class="st2" d="M236.5,208.3c-4.1,2.1-7.5,5.2-11.3,7.8c-6.5,4.7-12.9,9.5-19.3,14.3c-0.8,0.6-1.8,1.2-2.2,2.3
		c-8.2-8.3-17.1-15.9-27.2-21.9c-0.8-0.5-1.5-0.9-2.3-1.3c-1.3-0.7-1.1-1.3-0.1-2.2c8.7-8,17.9-15.3,27.3-22.3
		c5.2-3.9,10.8-7.3,16.2-11c1.7-1.2,2.4,0,2.9,1.1c4.1,8.3,8.6,16.3,12.3,24.8C234,202.6,235.7,205.2,236.5,208.3z"/>
	<path class="st1" d="M505.3,143c-0.5-6.7-0.3-13.3,0.1-20c0.2-3.5,0.2-6.9,0.3-10.4c0.1-3.2,0.1-3.2,2.9-2
		c22.3,9.1,43.2,20.7,63.1,34.2c0.8,0.5,1.5,1.2,2.8,2.3c-13.8,1.7-26.3,5.9-38.5,11.3c-0.9-0.3-1.8-0.5-2.6-0.9
		C524.6,152.1,515,147.4,505.3,143z"/>
	<path class="st1" d="M535.7,665.4c3.6-0.1,6.6,1.6,8.9,4.5c10.1,13.1,20.2,26.2,30.3,39.3c1.7,2.1,3.6,4.1,4.6,6.7
		c2,5.3,0.1,11.2-4.7,14c-4.9,2.9-11.6,1.8-15-2.6c-11.2-14.5-22.5-29-33.6-43.6c-2.9-3.8-3.1-8.3-0.7-12.6
		C527.6,667.2,531,665.3,535.7,665.4z"/>
	<path class="st1" d="M407.6,276.2c10.9,0.3,21,3.9,30.9,8.2c6.6,2.8,12.9,6.3,19,10.1c1.8,1.1,3.4,2.4,4.5,4.2
		c1.7,2.8,0.8,5.1-2.4,6.1c-4.6,1.4-9.2,0.6-13.7-0.6c-6.1-1.7-12.1-4-18.3-5.3c-17-3.6-33.1-1.9-48,7.7c-4.4,2.9-8.7,2-10.6-2.1
		c-0.7-1.6-0.9-3.3,0.5-4.8c7.7-9,15.9-17.1,27.2-21.6C400.2,276.7,403.8,275.9,407.6,276.2z"/>
	<path class="st1" d="M295.5,322.2c6.4-0.2,11.8,2,17.2,4.3c6.6,2.8,13,6,19,10.1c2.6,1.8,2.9,4,0.8,6.4c-3.3,4-7.6,4.7-12.5,2.5
		c-5.1-2.3-10.7-2.7-16.1-4c-10.9-2.6-20.2,1.5-29.2,6.7c-2,1.1-3.9,2.3-5.9,3.4c-1.4,0.7-2.5,0.7-3.4-1.2
		c-3.5-6.8-3.3-8.3,2.2-13.5c5.4-5,10.9-9.9,17.8-12.9C288.7,322.6,292.2,321.9,295.5,322.2z"/>
	<path class="st1" d="M281.8,715.7c3.9-1.9,7.7-2.7,11.6-3c7-0.5,13.8,0.1,20.6,2.1c1.7,0.5,2.1,1,0.8,2.4c-1.9,2.1-3.2,4.6-3.8,7.5
		c-0.2,1.1-0.2,2.2,0.1,3.2c0.8,3.1,2.1,3.7,4.9,2.3c2.7-1.3,5.5-2.4,8.6-2.5c1.7-0.1,3.6-0.3,4.7,1.4s0.1,3.1-0.7,4.6
		c-2.2,3.7-5.3,6.6-8.8,9.1c-0.8,0.6-1.2,0.7-1.8-0.4c-1-1.8-2.8-2.3-4.9-2.4c-9-0.2-17.5,1.9-25.8,4.9c-4.5,1.6-9.1,1.8-13.1-1.6
		c-3.5-3-3.6-6.7-0.3-9.9c2.8-2.7,6.2-3.7,9.9-4c3.1-0.2,4.1-1.6,3.5-4.7C286.6,721.2,284.6,718.4,281.8,715.7z M291.8,738.2
		c6.8-0.1,12.4-2.3,17.8-5c1.7-0.8,0.7-1.5-0.3-2c-6.6-3.2-13.4-3-20.1-0.6c-1.8,0.7-3.9,2-3.5,4.3c0.4,2.2,2.5,2.9,4.7,3
		C291,738,291.7,738.2,291.8,738.2z"/>
	<path class="st2" d="M505.3,143c9.7,4.3,19.2,9,28.3,14.6c0.8,0.5,1.7,0.6,2.6,0.9c-9.6,4.5-18.6,10.1-27.9,15.6
		c-1.7-3.4-2-7.1-2.4-10.8c-0.6-5.4,0.2-10.9-1-16.3C504.6,145.7,504.7,144.3,505.3,143z"/>
	<path class="st1" d="M198.2,800.1c-10.5-0.1-18.7-8.4-18.5-18.8c0.2-11,8.9-18.7,19.2-18.3c10.3,0.3,18.1,8.3,18,18.8
		C216.7,792.1,208.6,800.2,198.2,800.1z M198.3,797.2c8.7,0,15.6-6.8,15.7-15.5c0.1-8.8-6.9-16.1-15.6-16s-15.6,6.9-15.7,15.6
		C182.7,790.3,189.4,797.1,198.3,797.2z"/>
	<path class="st1" d="M530.4,781.5c0,5.2-4.2,9.3-9.4,9.3c-5.2,0-9.4-4.1-9.5-9.3c-0.1-5,4.4-9.5,9.3-9.6
		C525.9,771.9,530.4,776.3,530.4,781.5z"/>
	<path class="st1" d="M389.7,824.4c-5.1,0-9.1-4.1-9.2-9.3c0-5.7,3.9-9.5,9.7-9.4c5,0,9.2,4.3,9.2,9.3
		C399.3,820.2,394.9,824.5,389.7,824.4z"/>
	<path class="st1" d="M409.8,803.4c5.7,0,9.4,3.7,9.4,9.3c0,5.2-4.2,9.5-9.3,9.4c-5.2-0.1-9.5-4.5-9.4-9.7
		C400.5,807.4,404.6,803.4,409.8,803.4z"/>
	<path class="st1" d="M504.5,645.4c5.1,0.8,10.3,0.1,15.4,0.6c0,0.9,0.1,1.8,0,2.7c-0.1,6.3-0.7,7.1-7,7.9c-2.2,0.3-4.6,0.2-6.8,0.1
		c-2.8-0.2-3.7-1.4-3.7-4.3C502.3,649.8,502.2,647.2,504.5,645.4z"/>
	<path class="st2" d="M460.2,186.4c-16.1,10.3-33.1,18.3-50.6,25.3c-12.9,5.1-25.9,9.7-39.2,13.8c-9.4,3-18.9,5.8-28.5,8.1
		c-8.1,2-16.1,4.3-24.2,6.2c-7.4,1.7-14.9,3.2-22.4,4.7c-6.9,1.4-13.7,2.7-20.6,4c-2.6,0.5-5.2,0.9-7.8,1.4
		c-1.6,0.3-2.5-0.2-2.8-1.9c-0.5-2.4-1.2-4.8-1.7-7.2c-0.4-1.8,0.3-3,1.7-4.2c9.3-7.7,19.8-13.3,30.6-18.5
		c14.5-7,29.6-12.6,44.9-17.8c10.5-3.5,21.2-6.5,32.1-8.4c14.4-2.5,28.9-3.8,43.4-4.7c14.1-0.9,28.3-0.9,42.4-0.9
		C458.4,186.4,459.3,186.4,460.2,186.4z"/>
	<path class="st2" d="M291.8,738.2c-0.1,0-0.8-0.2-1.5-0.2c-2.2-0.1-4.3-0.7-4.7-3c-0.4-2.3,1.7-3.6,3.5-4.3
		c6.7-2.5,13.5-2.7,20.1,0.6c1,0.5,2,1.1,0.3,2C304.1,735.9,298.6,738.1,291.8,738.2z"/>
	<path class="st1" d="M190.7,781.7c0-2.5,0.1-5.1,0-7.6c0-1.5,0.4-2.2,2-2.1c2.4,0.1,4.7-0.1,7.1,0.1c2.2,0.2,4.3,0.8,5.2,3.3
		c0.7,2.1,0.3,3.9-1.3,5.5c-0.4,0.4-1,0.8-0.5,1.3c2.1,1.9,1.4,4.6,1.9,6.9c0.2,0.6,1,1.7-0.6,1.8c-1.1,0.1-2-0.2-2-1.6
		c-0.1-1.2-0.3-2.3-0.4-3.5c-0.2-2-1.4-2.8-3.3-2.9c-5.6-0.4-5.6-0.4-5.6,5.2c0,0.5,0,0.9,0,1.4c0,0.9-0.1,1.6-1.3,1.6
		c-1-0.1-1.4-0.6-1.4-1.6c0.1-1.3,0-2.5,0-3.8S190.7,782.9,190.7,781.7L190.7,781.7z M197,780.5c1,0,2,0.1,3,0
		c1.4-0.2,2.3-1.1,2.5-2.5c0.2-1.2,0-2.5-1.2-3.1c-2.4-1.1-5-0.4-7.5-0.5c-0.4,0-0.4,0.5-0.5,0.8C192.3,779,193.4,780.6,197,780.5z"
		/>
</g>
</svg>
